# Blender v3.0.0 OBJ File: ''
# www.blender.org
mtllib Ring.mtl
o Cube_Cube.001
v -1.000000 -0.100000 1.000000
v -1.000000 0.100000 1.000000
v -1.000000 -0.100000 -1.000000
v -1.000000 0.100000 -1.000000
v 1.000000 -0.100000 1.000000
v 1.000000 0.100000 1.000000
v 1.000000 -0.100000 -1.000000
v 1.000000 0.100000 -1.000000
v 0.900000 -0.100000 0.900000
v -0.900000 -0.100000 -0.900000
v 0.900000 -0.100000 -0.900000
v -0.900000 -0.100000 0.900000
v -0.900000 0.100000 0.900000
v 0.900000 0.100000 -0.900000
v -0.900000 0.100000 -0.900000
v 0.900000 0.100000 0.900000
vt 0.375000 0.000000
vt 0.625000 0.000000
vt 0.625000 0.250000
vt 0.375000 0.250000
vt 0.625000 0.500000
vt 0.375000 0.500000
vt 0.625000 0.750000
vt 0.375000 0.750000
vt 0.625000 1.000000
vt 0.375000 1.000000
vt 0.137500 0.737500
vt 0.125000 0.750000
vt 0.125000 0.500000
vt 0.362500 0.737500
vt 0.362500 0.512500
vt 0.137500 0.512500
vt 0.875000 0.500000
vt 0.875000 0.750000
vt 0.637500 0.737500
vt 0.862500 0.737500
vt 0.862500 0.512500
vt 0.637500 0.512500
vt 0.575739 0.000000
vt 0.424261 0.000000
vt 0.424261 0.250000
vt 0.575739 0.250000
vt 0.424261 0.500000
vt 0.575739 0.500000
vt 0.424261 0.750000
vt 0.575739 0.750000
vt 0.424261 1.000000
vt 0.575739 1.000000
vn -1.0000 0.0000 0.0000
vn 0.0000 0.0000 -1.0000
vn 1.0000 0.0000 0.0000
vn 0.0000 0.0000 1.0000
vn 0.0000 -1.0000 -0.0000
vn 0.0000 1.0000 0.0000
usemtl None
s off
f 1/1/1 2/2/1 4/3/1 3/4/1
f 3/4/2 4/3/2 8/5/2 7/6/2
f 7/6/3 8/5/3 6/7/3 5/8/3
f 5/8/4 6/7/4 2/9/4 1/10/4
f 12/11/5 1/12/5 3/13/5 7/6/5 5/8/5 9/14/5 11/15/5 10/16/5
f 5/8/5 1/12/5 12/11/5 9/14/5
f 4/17/6 2/18/6 6/7/6 16/19/6 13/20/6 15/21/6
f 6/7/6 8/5/6 4/17/6 15/21/6 14/22/6 16/19/6
f 13/23/3 12/24/3 10/25/3 15/26/3
f 15/26/4 10/25/4 11/27/4 14/28/4
f 11/27/1 9/29/1 16/30/1 14/28/1
f 9/29/2 12/31/2 13/32/2 16/30/2
